<?xml version="1.0" encoding="UTF-8"?>
<svg xmlns="http://www.w3.org/2000/svg" xmlns:xlink="http://www.w3.org/1999/xlink" xmlns:zwibbler="http://zwibbler.com/xml" version="1.2" baseProfile="tiny" width="113.19164518730373" height="109.99158565291228" viewBox="0 0 113.19164518730373 109.99158565291228">
  <path d="M46.11868380372137,48.20508824554088 C97.38737774107177,51.45083760115999,92.67653685799874,44.95933888992177,154.3103289910251,48.20508824554088 C157.46007656061246,99.51512464486606,151.16058142143774,121.28276078554771,154.3103289910251,153.19667389845316 C79.06327865632042,156.44242325407228,108.36179436699872,149.95092454283403,46.11868380372137,153.19667389845316 C49.26843137330874,76.72931581192483,42.968936234134,113.22264635264312,46.11868380372137,48.20508824554088 Z" transform="matrix(1 0 0 1 -43.61868380372137 -45.70508824554088)" fill="#ffa500" stroke="#000000" stroke-width="4" stroke-linejoin="round" stroke-linecap="round" zwibbler:id="9"/>
  <path d="M63.72791543797054,62.16246447849994 C78.21554711246517,62.7385273058286,84.03791792152364,61.4078386638583,89.61098127259163,62.02964632381571 C90.68687643208318,70.80445480499657,89.6668030908211,68.62241466329226,90.97366602217039,80.53353288179565 C73.23568812956381,81.21467664640065,73.21543908737212,79.85238911719065,63.72791543797054,80.53353288179565 C64.18719214805293,69.39624313585583,63.268638727888145,70.04790209498498,63.72791543797054,62.16246447849994 Z" transform="matrix(1.0000000000000002 0 0 1.0000000000000002 -43.61868380372137 -45.70508824554088)" fill="#ffffff" stroke="#000000" stroke-width="4" stroke-linejoin="round" stroke-linecap="round" zwibbler:id="10"/>
  <path d="M109.97928837174304,62.24526321558102 C123.58371824132902,62.94223531012611,126.2839180556198,61.54829112103593,137.8581721535466,62.24526321558102 C138.34711351311242,69.81142000471789,137.3692307939808,70.29531845585086,137.8581721535466,81.8029175982137 C126.13927094060134,82.49988969275879,118.11031518583242,81.10594550366861,109.97928837174304,81.8029175982137 C110.46822973130885,72.72015846383138,109.49034701217722,68.18472986061828,109.97928837174304,62.24526321558102 Z" transform="matrix(1.0000000000000002 0 0 1.0000000000000002 -43.61868380372137 -45.70508824554088)" fill="#ffffff" stroke="#000000" stroke-width="4" stroke-linejoin="round" stroke-linecap="round" zwibbler:id="11"/>
  <path d="M75.40117987053961,80.95699656099293 C77.25413222140472,118.61487665674674,74.70832072499715,115.22489519524223,76.21783902147175,131.58986391878415" transform="matrix(1.0000000000000002 0 0 1.0000000000000002 -43.61868380372137 -45.70508824554088)" fill="none" stroke="#000000" stroke-width="4" stroke-linejoin="round" stroke-linecap="round" zwibbler:id="12"/>
  <path d="M121.54860459159707,82.18816798078396 C123.28571705461947,112.66397503029052,120.57614011084846,99.12053583225207,122.36526374252918,132.8210353385752" transform="matrix(1.0000000000000002 0 0 1.0000000000000002 -43.61868380372137 -45.70508824554088)" fill="none" stroke="#000000" stroke-width="4" stroke-linejoin="round" stroke-linecap="round" zwibbler:id="13"/>
  <path d="M67.27849454469234,87.96786363068509 C77.14614562026014,91.06912539729211,90.06516482572226,96.78433768911272,100.17066479658503,98.3054028527085 C111.33410098115662,99.98570703709679,126.83176378048093,98.15298518027801,138.25794905929345,98.08766332066494 M123.30106989345437,105.6732922081395 C127.7881336432061,103.39760354189713,138.27081177584006,100.3376265538141,138.25794905929345,98.08766332066494 C138.24508634274684,95.83770008751577,127.72810763265528,92.89777512053436,123.21531844981034,90.6735373204784" transform="matrix(1.0000000000000002 0 0 1.0000000000000002 -43.61868380372137 -45.70508824554088)" fill="none" stroke="#e31919" stroke-width="4" stroke-linejoin="round" stroke-linecap="round" zwibbler:id="14"/>
  <path d="M132.92120606785838,117.48888257935627 C122.6710963429649,118.04678247702611,109.01171155762304,119.10982610984482,98.75417365154678,119.34854890492242 C88.32948888704797,119.59116169442136,74.41229434599069,119.15776317543387,63.98006035789524,119.07599786279592 M79.0383810212582,111.69379095704366 C74.52088482224931,113.90845302876934,63.997694769006756,116.82606696884723,63.98006035789524,119.07599786279592 C63.96242594678374,121.3259287567446,74.43859090372894,124.40813053386323,78.92081828051482,126.69333025003493" transform="matrix(1.0000000000000002 0 0 1.0000000000000002 -43.61868380372137 -45.70508824554088)" fill="none" stroke="#21d83b" stroke-width="4" stroke-linejoin="round" stroke-linecap="round" zwibbler:id="15"/>
</svg>
